<?xml version="1.0" encoding="utf-8"?>
<!-- Generator: Adobe Illustrator 26.0.3, SVG Export Plug-In . SVG Version: 6.00 Build 0)  -->
<svg version="1.1" id="Capa_1" xmlns="http://www.w3.org/2000/svg" xmlns:xlink="http://www.w3.org/1999/xlink" x="0px" y="0px"
	 viewBox="0 0 595.28 841.89" style="enable-background:new 0 0 595.28 841.89;" xml:space="preserve">
<style type="text/css">
	.st0{stroke:#FFFFFF;stroke-miterlimit:10;}
</style>
<g>
	<g>
		<path class="st0" d="M385.26,516.68v-12.67l23.67-9.07c1.53-0.53,2.77-1.27,3.73-2.2c0.96-0.93,1.43-2.38,1.43-4.33V346.54
			c0-1.87-0.55-3.22-1.65-4.07c-1.1-0.84-2.27-1.49-3.51-1.93l-23.67-9.07v-12.67h109.89c20.95,0,37.01,2.11,48.21,6.33
			c11.19,4.22,18.89,9.67,23.1,16.33c4.21,6.67,6.31,13.73,6.31,21.2c0,12.62-4.04,22.96-12.12,31
			c-8.08,8.05-19.06,13.62-32.92,16.73v1.73c11.48,0.53,21.66,2.8,30.56,6.8s15.88,9.42,20.95,16.27c5.07,6.85,7.6,14.89,7.6,24.13
			c0,11.38-2.42,20.8-7.25,28.27c-4.83,7.47-11.38,13.31-19.66,17.53c-8.27,4.22-17.62,7.2-28.05,8.93
			c-10.43,1.73-21.23,2.6-32.42,2.6H385.26z M464.31,343.88v59.6h14.49c15.68,0,26.49-2.42,32.42-7.27
			c5.93-4.84,8.89-11.49,8.89-19.93c0-11.38-2.85-19.62-8.54-24.73c-5.69-5.11-14.99-7.67-27.9-7.67H464.31z M464.31,426.68v64.93
			h29.55c13.2,0,22.98-2.42,29.34-7.27c6.36-4.84,9.54-12.64,9.54-23.4c0-12.62-3.28-21.49-9.83-26.6
			c-6.55-5.11-17.96-7.67-34.22-7.67H464.31z"/>
	</g>
</g>
<g>
	<g>
		<path class="st0" d="M160.05,516.68v-12.67l22-10.13c1.33-0.62,2.47-1.33,3.4-2.13c0.93-0.8,1.4-2.18,1.4-4.13V346.54
			c0-1.87-0.45-3.2-1.33-4c-0.89-0.8-2.05-1.47-3.47-2l-22-9.07v-12.67h92.27l38.67,112.93l5.87,22.53h2.93l44.93-135.47h90.8v12.67
			l-21.73,9.07c-1.33,0.53-2.53,1.2-3.6,2c-1.07,0.8-1.6,2.13-1.6,4v141.87c0,1.96,0.51,3.4,1.53,4.33c1.02,0.93,2.24,1.67,3.67,2.2
			l21.73,9.07v12.67H335.38v-12.67l21.6-9.07c1.51-0.62,2.75-1.38,3.73-2.27c0.98-0.89,1.47-2.31,1.47-4.27v-135.2h-3.2l-6.27,20
			l-39.33,113.47l-12.53,30h-28.13l-49.2-143.47l-5.87-20h-3.07v134.4c0,1.96,0.47,3.33,1.4,4.13c0.93,0.8,2.02,1.51,3.27,2.13
			l21.73,10.13v12.67H160.05z"/>
	</g>
</g>
<g>
	<g>
		<path class="st0" d="M63.73,516.68v-12.67l23.2-9.07c1.51-0.62,2.71-1.38,3.6-2.27c0.89-0.89,1.33-2.31,1.33-4.27v-144.8H52
			c-1.6,0-2.87,0.42-3.8,1.27c-0.93,0.85-1.62,2.16-2.07,3.93l-6.8,29.47H18.67v-59.47h193.47v59.47h-20.8l-6.8-29.47
			c-0.36-1.69-1.09-2.98-2.2-3.87c-1.11-0.89-2.29-1.33-3.53-1.33h-39.87v144.8c0,1.96,0.51,3.42,1.53,4.4
			c1.02,0.98,2.15,1.69,3.4,2.13l23.2,9.07v12.67H63.73z"/>
	</g>
</g>
</svg>
